<?xml version="1.0" standalone="no"?>
<!DOCTYPE svg PUBLIC "-//W3C//DTD SVG 20010904//EN"
 "http://www.w3.org/TR/2001/REC-SVG-20010904/DTD/svg10.dtd">
<svg version="1.0" xmlns="http://www.w3.org/2000/svg"
 width="1228.000000pt" height="916.000000pt" viewBox="0 0 1228.000000 916.000000"
 preserveAspectRatio="xMidYMid meet">

<g transform="translate(0.000000,916.000000) scale(0.100000,-0.100000)"
fill="#000000" stroke="none">
<path d="M1630 7879 c0 -5 -4 -7 -10 -4 -5 3 -10 -1 -10 -9 0 -8 -8 -17 -17
-20 -10 -3 -38 -33 -62 -66 -24 -33 -47 -60 -51 -60 -5 0 -11 -18 -15 -41 -4
-22 -18 -51 -31 -64 -32 -32 -31 -63 2 -71 23 -6 25 -10 20 -37 -3 -16 -6 -40
-6 -53 0 -17 -6 -24 -20 -24 -15 0 -20 -7 -20 -24 0 -29 -17 -43 -33 -27 -6 6
-15 11 -19 11 -14 0 -9 -37 7 -50 15 -13 20 -42 8 -53 -3 -4 -12 -2 -19 4 -22
18 -28 -12 -6 -34 17 -17 23 -18 36 -7 13 10 16 10 16 -4 0 -21 13 -20 34 2 9
11 41 31 70 46 30 15 57 34 60 42 3 8 12 14 21 14 9 0 15 9 16 23 1 21 1 21 8
-3 5 -18 15 -26 36 -28 51 -6 48 -19 -6 -26 -28 -4 -49 -9 -46 -12 3 -3 36 -9
73 -15 93 -13 120 -25 146 -68 12 -20 22 -37 24 -39 1 -2 17 3 37 11 43 18 57
69 32 117 -15 29 -15 30 5 30 11 0 27 11 35 24 21 32 6 62 -34 71 -24 5 -31
13 -40 50 -14 55 -14 55 3 55 22 0 46 29 46 55 0 13 -11 32 -24 42 -15 12 -26
35 -31 61 -14 83 -85 147 -176 159 -24 4 -39 11 -39 19 0 8 -4 14 -10 14 -5 0
-10 -5 -10 -11z m17 -121 c-3 -7 -5 -2 -5 12 0 14 2 19 5 13 2 -7 2 -19 0 -25z
m193 -63 c0 -5 -5 -3 -10 5 -5 8 -10 20 -10 25 0 6 5 3 10 -5 5 -8 10 -19 10
-25z m-10 -87 c0 -28 -2 -49 -4 -47 -8 9 -13 99 -5 99 5 0 9 -23 9 -52z m-336
-14 c10 -25 7 -74 -4 -74 -5 0 -10 6 -10 14 0 7 -3 28 -6 45 -7 32 9 44 20 15z
m416 6 c0 -5 -2 -10 -4 -10 -3 0 -8 5 -11 10 -3 6 -1 10 4 10 6 0 11 -4 11
-10z m-250 -4 c0 -3 -4 -8 -10 -11 -5 -3 -10 -1 -10 4 0 6 5 11 10 11 6 0 10
-2 10 -4z"/>
<path d="M6540 7041 c0 -20 12 -20 613 -18 593 2 615 1 712 -20 124 -26 194
-52 272 -101 63 -39 123 -86 123 -97 0 -4 -14 5 -31 19 -50 42 -187 104 -279
125 -152 36 -263 41 -850 41 l-571 0 -26 -30 c-53 -64 38 -60 -1328 -60
l-1245 0 -68 -40 c-62 -37 -60 -30 6 19 l27 20 -29 1 c-86 1 -227 -199 -275
-392 -33 -129 -41 -234 -41 -529 0 -225 -2 -269 -15 -279 -12 -10 -15 -45 -15
-192 0 -150 2 -180 15 -184 12 -5 15 -33 15 -165 0 -133 -3 -161 -15 -165 -13
-5 -15 -55 -15 -360 0 -306 2 -355 15 -360 12 -5 15 -26 15 -99 0 -73 -3 -94
-15 -99 -23 -8 -23 -697 0 -716 13 -11 15 -127 15 -931 0 -908 0 -918 20 -929
20 -11 20 -8 20 2260 0 2011 2 2270 15 2270 13 0 15 -260 15 -2284 l0 -2285
30 -21 30 -21 0 2430 c0 1660 3 2454 11 2508 24 180 72 296 159 384 89 90 111
93 47 7 -70 -94 -112 -177 -139 -281 l-23 -82 -2 -2501 -3 -2500 57 -43 58
-43 5 2544 5 2543 22 58 c64 170 176 268 345 303 55 11 128 14 316 12 228 -3
245 -4 258 -22 8 -11 14 -36 14 -56 0 -73 29 -142 80 -192 85 -82 22 -78 1136
-78 1081 0 1040 -2 1117 61 50 41 87 120 87 186 0 44 5 59 25 78 l24 25 228 0
c258 0 328 -8 419 -50 113 -51 193 -143 238 -273 21 -62 21 -68 24 -1216 1
-635 -1 -1151 -5 -1147 -4 4 -13 22 -19 39 -17 51 -45 42 -68 -21 -18 -51 -15
-85 5 -49 14 24 47 21 70 -5 18 -21 20 -38 18 -248 -1 -124 -1 -483 0 -797 l1
-573 60 0 60 0 -3 1978 -2 1977 -22 80 c-12 44 -31 102 -42 128 -23 53 -110
184 -141 212 -31 28 -24 38 11 18 87 -51 180 -191 213 -319 35 -142 36 -180
36 -2138 l0 -1936 30 0 30 0 0 1805 c0 1598 2 1805 15 1805 13 0 15 -207 15
-1805 0 -1798 0 -1805 20 -1805 20 0 20 7 20 585 0 511 2 586 15 591 13 5 15
79 15 580 0 502 -2 575 -15 580 -13 5 -15 99 -15 758 0 424 -4 788 -10 836
-49 426 -276 651 -705 700 -51 5 -340 10 -662 10 -561 0 -573 0 -573 -19z
m1842 -468 c42 -89 68 -226 68 -360 0 -94 -3 -113 -15 -113 -11 0 -15 13 -15
53 0 170 -38 382 -86 480 -23 49 -23 50 -3 27 12 -14 35 -53 51 -87z m-4699 5
c-34 -96 -50 -196 -59 -351 -5 -97 -10 -127 -20 -127 -11 0 -14 24 -14 109 0
119 18 232 51 320 19 51 56 121 64 121 2 0 -8 -33 -22 -72z m-125 -1066 c2
-140 0 -162 -13 -162 -13 0 -15 24 -15 166 0 128 3 165 13 162 9 -4 13 -48 15
-166z m0 -879 c-2 -217 -7 -338 -13 -338 -6 0 -11 121 -13 338 -2 297 0 337
13 337 13 0 15 -40 13 -337z m4946 31 c8 -20 8 -942 0 -971 -4 -13 -10 -20
-15 -17 -12 7 -12 1004 0 1004 5 0 12 -7 15 -16z m-354 -580 c0 -16 -16 -19
-25 -4 -8 13 4 32 16 25 5 -4 9 -13 9 -21z m-4590 -370 c0 -290 -2 -334 -15
-334 -13 0 -15 44 -15 333 0 184 3 337 6 340 20 20 24 -35 24 -339z"/>
<path d="M4246 6544 c-29 -29 -15 -64 25 -64 20 0 29 -5 29 -16 0 -13 -7 -15
-31 -10 -22 4 -29 2 -27 -7 7 -19 53 -20 68 -2 18 21 18 78 1 99 -17 20 -45
20 -65 0z m52 -27 c4 -22 -27 -35 -38 -16 -10 15 7 42 24 36 6 -2 12 -11 14
-20z"/>
<path d="M4425 6521 c-31 -46 -28 -71 10 -71 14 0 25 -5 25 -12 0 -6 9 -3 20
7 13 12 17 22 11 29 -5 6 -11 26 -13 45 -4 48 -20 48 -53 2z m27 -43 c-21 -21
-32 3 -14 30 l17 26 3 -23 c2 -13 -1 -28 -6 -33z"/>
<path d="M4528 6549 c-10 -5 -18 -17 -18 -26 0 -13 3 -13 15 -3 13 11 15 6 15
-39 0 -28 5 -51 10 -51 6 0 10 28 10 65 0 67 -3 72 -32 54z"/>
<path d="M7553 6545 c-18 -8 -33 -18 -33 -23 0 -18 14 -21 41 -7 35 19 57 19
91 1 26 -14 38 -12 38 6 0 11 -63 38 -87 38 -10 -1 -33 -7 -50 -15z"/>
<path d="M7422 6493 c2 -46 7 -59 21 -61 15 -3 17 5 17 57 0 55 -2 61 -20 61
-19 0 -21 -5 -18 -57z"/>
<path d="M4355 6531 c-3 -5 -1 -12 5 -16 5 -3 10 1 10 9 0 18 -6 21 -15 7z"/>
<path d="M7784 6526 c-3 -8 -4 -29 -2 -48 l3 -33 88 -3 c57 -2 94 1 103 9 17
14 18 61 2 77 -18 18 -187 16 -194 -2z"/>
<path d="M7370 6480 c0 -38 4 -50 15 -50 11 0 15 12 15 50 0 38 -4 50 -15 50
-11 0 -15 -12 -15 -50z"/>
<path d="M7561 6501 c-21 -14 -4 -32 22 -22 12 5 32 5 44 0 14 -5 25 -4 29 3
9 14 -15 28 -51 28 -16 0 -36 -4 -44 -9z"/>
<path d="M7317 6494 c-4 -4 -7 -20 -7 -36 0 -22 5 -28 21 -28 17 0 20 5 17 32
-3 31 -17 45 -31 32z"/>
<path d="M4355 6469 c-10 -15 3 -25 16 -12 7 7 7 13 1 17 -6 3 -14 1 -17 -5z"/>
<path d="M7267 6474 c-15 -15 -7 -45 11 -42 9 2 17 12 17 22 0 20 -16 31 -28
20z"/>
<path d="M7587 6463 c-4 -3 -2 -12 4 -20 9 -10 15 -10 25 -2 8 6 14 15 14 20
0 10 -34 12 -43 2z"/>
<path d="M4152 5907 c-23 -27 -24 -62 -2 -90 24 -30 60 -35 84 -11 23 22 20
54 -4 54 -11 0 -20 -4 -20 -10 0 -5 7 -10 15 -10 18 0 9 -26 -12 -34 -22 -9
-63 21 -63 45 0 34 19 59 45 59 13 0 27 -4 30 -10 3 -5 11 -10 17 -10 7 0 6 6
-2 15 -15 18 -74 20 -88 2z"/>
<path d="M4570 5900 c0 -17 -5 -19 -24 -14 -19 4 -28 0 -41 -20 -16 -24 -16
-28 -1 -51 12 -18 24 -24 46 -22 30 2 30 2 30 65 0 34 -2 62 -5 62 -3 0 -5 -9
-5 -20z m-2 -56 c4 -29 -23 -51 -43 -34 -16 13 -20 42 -8 54 14 14 48 1 51
-20z"/>
<path d="M4290 5870 c-11 -11 -20 -23 -20 -28 0 -18 33 -52 50 -52 17 0 50 34
50 52 0 11 -38 48 -50 48 -5 0 -19 -9 -30 -20z m58 -26 c4 -29 -23 -51 -43
-34 -16 13 -20 42 -8 54 14 14 48 1 51 -20z"/>
<path d="M4402 5874 c-27 -18 -28 -45 -4 -67 35 -32 72 -14 72 35 0 17 -7 31
-19 38 -25 13 -22 13 -49 -6z m56 -30 c4 -29 -23 -51 -43 -34 -16 13 -20 42
-8 54 14 14 48 1 51 -20z"/>
<path d="M4660 5870 c-24 -24 -24 -29 -4 -58 17 -25 54 -27 62 -4 3 11 1 11
-17 0 -18 -11 -23 -11 -31 2 -16 25 -12 30 25 30 38 0 44 10 19 34 -20 21 -30
20 -54 -4z m50 -10 c0 -5 -12 -10 -26 -10 -14 0 -23 4 -19 10 3 6 15 10 26 10
10 0 19 -4 19 -10z"/>
<path d="M4858 5879 c-22 -12 -24 -62 -3 -79 18 -15 47 -10 53 10 4 13 3 13
-11 2 -18 -15 -37 -8 -37 14 0 9 11 14 30 14 35 0 41 23 11 40 -23 12 -22 12
-43 -1z m42 -19 c0 -5 -9 -10 -20 -10 -11 0 -20 5 -20 10 0 6 9 10 20 10 11 0
20 -4 20 -10z"/>
<path d="M4968 5883 c-14 -3 -18 -14 -17 -51 l2 -47 6 40 c7 46 37 62 45 23 3
-13 7 -32 9 -43 3 -11 5 -2 6 21 1 35 -13 66 -28 63 -4 -1 -14 -3 -23 -6z"/>
<path d="M5113 5882 c-20 -3 -23 -9 -22 -50 1 -26 3 -38 6 -27 2 11 6 30 9 43
8 39 38 23 45 -23 l6 -40 2 46 c1 49 -6 58 -46 51z"/>
<path d="M5201 5876 c-6 -7 -13 -34 -15 -60 -4 -38 -1 -48 15 -57 26 -14 59
-2 59 21 0 13 -8 20 -27 22 -30 3 -34 20 -7 24 20 3 34 22 34 47 0 21 -42 24
-59 3z m39 -21 c0 -8 -6 -15 -14 -15 -17 0 -28 14 -19 24 12 12 33 6 33 -9z
m10 -75 c0 -5 -11 -10 -25 -10 -14 0 -25 5 -25 10 0 6 11 10 25 10 14 0 25 -4
25 -10z"/>
<path d="M4756 5843 c9 -21 20 -42 24 -47 10 -10 43 62 36 78 -2 6 -9 -2 -16
-19 -11 -29 -12 -29 -26 -11 -8 11 -14 23 -14 28 0 4 -4 8 -9 8 -6 0 -3 -17 5
-37z"/>
<path d="M5053 5840 c0 -25 2 -35 4 -22 2 12 2 32 0 45 -2 12 -4 2 -4 -23z"/>
<path d="M5280 5801 c0 -6 5 -13 10 -16 6 -3 10 1 10 9 0 9 -4 16 -10 16 -5 0
-10 -4 -10 -9z"/>
<path d="M7600 5800 c-97 -18 -136 -71 -127 -175 5 -62 23 -115 39 -115 5 0 7
8 4 18 -2 9 -8 36 -11 60 -6 38 -5 42 14 42 14 0 25 9 31 25 5 14 16 25 24 25
9 0 23 9 33 19 13 14 23 17 33 11 11 -7 12 -15 1 -51 -12 -38 -11 -44 5 -56
17 -12 17 -14 -1 -33 -10 -11 -25 -18 -32 -16 -7 3 -13 1 -13 -4 0 -6 -7 -10
-15 -10 -8 0 -15 5 -15 10 0 6 -10 10 -22 10 -17 0 -19 -3 -9 -9 9 -6 11 -20
6 -48 -5 -32 -3 -42 10 -47 13 -4 14 -10 5 -26 -15 -29 -90 -29 -97 0 -7 25
-15 25 -39 -1 -16 -17 -16 -22 -4 -30 80 -53 171 -70 258 -49 60 14 84 35 53
45 -12 3 -26 15 -31 25 -5 10 -20 21 -32 23 -20 4 -19 4 4 6 23 1 29 7 38 44
6 23 13 49 16 57 8 22 5 25 -17 22 -23 -4 -37 25 -19 41 10 9 14 9 17 0 7 -19
21 -15 28 7 4 12 1 28 -6 36 -7 8 -12 31 -11 52 3 67 -46 105 -118 92z"/>
<path d="M4156 5608 c-9 -12 -16 -30 -16 -39 0 -19 39 -54 71 -64 21 -7 26
-30 9 -40 -6 -4 -22 0 -35 9 -30 20 -45 20 -45 3 0 -26 37 -49 71 -45 45 4 69
47 46 82 -9 13 -29 29 -46 36 -31 12 -40 33 -20 45 5 4 18 0 28 -9 22 -20 41
-21 41 -2 0 45 -77 62 -104 24z"/>
<path d="M4900 5620 c0 -6 12 -51 27 -101 24 -76 31 -89 48 -87 14 2 24 18 36
58 10 33 19 49 23 40 3 -8 12 -33 19 -55 10 -27 20 -40 32 -40 15 0 25 20 49
92 16 51 27 95 23 99 -16 16 -37 -10 -53 -68 l-18 -62 -20 64 c-28 86 -46 88
-69 10 -9 -33 -21 -60 -25 -60 -4 0 -14 26 -22 57 -10 40 -20 59 -32 61 -10 2
-18 -2 -18 -8z"/>
<path d="M5765 5620 c-8 -12 20 -24 35 -15 5 3 10 10 10 16 0 12 -37 12 -45
-1z"/>
<path d="M5842 5533 c3 -82 6 -98 20 -101 11 -2 18 5 20 19 4 32 23 34 36 4 6
-14 18 -25 27 -25 19 0 19 11 -2 54 -15 32 -15 36 1 60 16 25 16 26 -3 26 -11
0 -29 -12 -40 -26 l-21 -27 0 57 c0 50 -2 56 -20 56 -20 0 -21 -5 -18 -97z"/>
<path d="M7516 5604 c-5 -14 -4 -15 9 -4 17 14 19 20 6 20 -5 0 -12 -7 -15
-16z"/>
<path d="M4310 5595 c0 -7 -8 -18 -17 -24 -17 -9 -17 -10 0 -28 10 -12 17 -36
17 -60 0 -41 11 -53 46 -53 19 0 18 26 -1 34 -9 3 -15 19 -15 41 0 24 4 35 15
35 8 0 15 7 15 15 0 8 -6 15 -14 15 -7 0 -16 9 -19 20 -6 23 -27 27 -27 5z"/>
<path d="M4417 5558 c-9 -7 -19 -27 -23 -43 -7 -39 26 -85 62 -85 33 0 64 17
64 35 0 18 -14 19 -40 3 -16 -10 -23 -10 -37 5 -16 16 -15 17 36 17 53 0 53 0
46 27 -4 16 -11 34 -17 40 -13 17 -69 17 -91 1z m71 -25 c5 -16 -22 -27 -44
-19 -13 5 -14 9 -4 22 15 17 41 15 48 -3z"/>
<path d="M4568 5501 c33 -95 53 -94 86 3 19 60 20 66 3 66 -8 0 -22 -19 -32
-42 l-17 -43 -13 40 c-8 28 -18 41 -32 43 -20 3 -20 2 5 -67z"/>
<path d="M4706 5548 c-36 -51 -5 -118 53 -118 16 0 37 7 45 16 30 30 14 45
-23 22 -20 -12 -51 -5 -51 12 0 5 20 10 45 10 39 0 45 3 45 21 0 41 -18 59
-60 59 -29 0 -43 -6 -54 -22z m73 -11 c6 -8 8 -17 4 -20 -12 -12 -53 -7 -53 6
0 28 30 37 49 14z"/>
<path d="M5180 5550 c-26 -26 -25 -60 1 -94 27 -34 71 -35 104 -1 48 47 19
115 -50 115 -22 0 -43 -8 -55 -20z m90 -44 c0 -33 -23 -50 -49 -36 -26 13 -28
55 -4 69 25 13 53 -4 53 -33z"/>
<path d="M5332 5558 c3 -7 14 -14 26 -16 28 -4 27 -8 -3 -48 -40 -52 -34 -64
31 -64 47 0 55 3 52 18 -2 10 -14 18 -31 20 l-28 3 31 39 c16 21 30 43 30 49
0 7 -22 11 -56 11 -40 0 -55 -4 -52 -12z"/>
<path d="M5483 5563 c-21 -8 -15 -33 7 -33 11 0 20 5 20 11 0 6 6 9 13 7 24
-9 12 -30 -23 -42 -20 -6 -36 -19 -38 -29 -6 -31 16 -46 69 -45 l49 1 0 57 c0
31 -5 61 -12 68 -12 12 -62 15 -85 5z m57 -83 c0 -12 -28 -25 -36 -17 -9 9 6
27 22 27 8 0 14 -5 14 -10z"/>
<path d="M5612 5502 c2 -53 6 -67 20 -70 14 -3 17 6 20 50 3 45 6 53 23 53 17
0 20 -8 23 -52 2 -39 7 -53 18 -53 12 0 14 13 12 68 l-3 67 -58 2 -58 2 3 -67z"/>
<path d="M5770 5500 c0 -56 3 -70 15 -70 12 0 15 14 15 70 0 56 -3 70 -15 70
-12 0 -15 -14 -15 -70z"/>
<path d="M4876 4923 c-11 -11 -6 -23 9 -23 8 0 15 4 15 9 0 13 -16 22 -24 14z"/>
<path d="M4140 4840 c0 -63 3 -80 14 -80 10 0 16 14 18 43 l4 42 19 -42 c24
-52 41 -54 60 -9 22 51 35 54 35 7 0 -23 5 -41 10 -41 6 0 10 33 10 80 0 66
-3 80 -16 80 -9 0 -24 -20 -37 -50 -11 -27 -24 -50 -27 -50 -4 0 -17 23 -30
50 -16 33 -30 50 -42 50 -16 0 -18 -9 -18 -80z"/>
<path d="M4520 4841 c0 -65 3 -81 15 -81 10 0 15 10 15 29 0 25 5 30 26 33 36
4 51 29 38 65 -8 24 -16 28 -52 31 l-42 3 0 -80z m70 30 c0 -19 -23 -35 -34
-24 -14 15 -5 43 14 43 13 0 20 -7 20 -19z"/>
<path d="M5191 4879 c-8 -14 -9 -24 -3 -28 6 -3 12 -24 14 -46 2 -33 7 -41 26
-43 12 -2 22 1 22 7 0 6 -4 11 -10 11 -15 0 -12 67 3 74 10 5 10 7 0 12 -7 3
-13 12 -13 20 0 21 -23 17 -39 -7z"/>
<path d="M4753 4868 c-53 -26 -30 -108 30 -108 42 0 57 15 57 56 0 23 -7 38
-22 48 -26 18 -35 19 -65 4z m55 -51 c4 -33 -22 -47 -45 -24 -22 21 -8 59 20
55 16 -2 23 -11 25 -31z"/>
<path d="M4952 4864 c-25 -17 -31 -71 -10 -92 18 -18 75 -15 82 3 5 13 0 15
-29 9 -28 -5 -35 -3 -35 10 0 12 9 16 35 16 27 0 35 4 35 18 -1 41 -43 61 -78
36z m53 -24 c4 -6 -7 -10 -25 -10 -18 0 -29 4 -25 10 3 6 15 10 25 10 10 0 22
-4 25 -10z"/>
<path d="M5082 4864 c-25 -17 -31 -71 -10 -92 18 -18 77 -15 85 3 8 22 -4 30
-22 15 -21 -18 -45 -5 -45 25 0 30 20 41 49 25 17 -9 21 -8 21 5 0 8 -12 20
-26 25 -31 12 -25 13 -52 -6z"/>
<path d="M5298 4869 c-26 -15 -22 -48 7 -61 33 -15 32 -30 -1 -22 -20 5 -25 3
-22 -7 3 -8 19 -14 39 -14 29 0 34 4 37 26 3 22 -2 29 -27 37 -40 14 -40 26
-1 17 34 -8 41 8 11 25 -23 12 -22 12 -43 -1z"/>
<path d="M4340 4867 c0 -2 7 -25 16 -51 9 -26 14 -60 12 -76 -6 -39 16 -40 30
-2 6 15 20 51 31 80 20 51 20 52 2 52 -13 0 -21 -9 -26 -30 -4 -16 -10 -30
-15 -30 -4 0 -10 14 -13 30 -4 18 -13 30 -22 30 -8 0 -15 -1 -15 -3z"/>
<path d="M4650 4815 c0 -42 3 -55 15 -55 11 0 15 11 15 39 0 25 5 41 15 45 26
10 16 26 -15 26 -30 0 -30 -1 -30 -55z"/>
<path d="M4870 4805 c0 -49 -4 -67 -15 -71 -23 -9 -18 -24 9 -24 30 0 36 16
36 96 0 50 -3 64 -15 64 -12 0 -15 -14 -15 -65z"/>
<path d="M7262 4151 c4 -13 18 -16 19 -4 0 4 -5 9 -11 12 -7 2 -11 -2 -8 -8z"/>
<path d="M7310 4095 c0 -37 4 -65 10 -65 6 0 10 28 10 65 0 37 -4 65 -10 65
-6 0 -10 -28 -10 -65z"/>
<path d="M7360 4095 c0 -37 4 -65 10 -65 6 0 10 28 10 65 0 37 -4 65 -10 65
-6 0 -10 -28 -10 -65z"/>
<path d="M7416 4151 c-4 -5 -2 -12 3 -15 5 -4 12 -2 15 3 4 5 2 12 -3 15 -5 4
-12 2 -15 -3z"/>
<path d="M8000 4140 c0 -16 -7 -20 -30 -20 -24 0 -33 -6 -40 -26 -16 -40 3
-64 50 -64 l40 0 0 65 c0 37 -4 65 -10 65 -5 0 -10 -9 -10 -20z m-11 -59 c12
-21 5 -31 -21 -31 -13 0 -18 7 -18 25 0 30 25 34 39 6z"/>
<path d="M4327 4144 c-16 -16 -5 -44 23 -61 17 -9 30 -21 30 -26 0 -5 -13 -7
-30 -3 -17 3 -30 1 -30 -5 0 -15 43 -28 63 -17 23 12 22 55 -2 63 -11 3 -25
13 -33 22 -12 15 -10 16 20 10 25 -5 33 -3 30 6 -5 13 -60 22 -71 11z"/>
<path d="M4860 4090 c0 -33 4 -60 10 -60 6 0 10 11 10 25 0 21 5 25 30 25 25
0 30 -4 30 -25 0 -14 5 -25 10 -25 6 0 10 27 10 60 0 58 -15 84 -22 38 -2 -17
-11 -24 -30 -26 -24 -3 -28 0 -28 22 0 14 -4 26 -10 26 -6 0 -10 -27 -10 -60z"/>
<path d="M5412 4094 c-25 -61 -23 -77 6 -51 23 21 51 22 58 2 6 -13 34 -22 34
-10 0 19 -52 115 -62 115 -7 0 -23 -25 -36 -56z m48 -4 c0 -11 -4 -20 -10 -20
-5 0 -10 9 -10 20 0 11 5 20 10 20 6 0 10 -9 10 -20z"/>
<path d="M7080 4091 l0 -61 39 0 c46 0 53 13 43 75 -7 38 -10 40 -45 43 l-37
3 0 -60z m58 27 c-3 -7 -11 -13 -18 -13 -7 0 -15 6 -17 13 -3 7 4 12 17 12 13
0 20 -5 18 -12z m3 -53 c0 -5 -9 -11 -21 -13 -20 -3 -27 8 -13 22 10 9 34 3
34 -9z"/>
<path d="M7730 4091 c0 -34 4 -61 10 -61 6 0 10 8 10 19 0 13 10 20 31 25 27
5 30 9 27 38 -3 30 -6 33 -40 36 l-38 3 0 -60z m58 22 c-2 -10 -10 -18 -18
-18 -8 0 -16 8 -18 18 -2 12 3 17 18 17 15 0 20 -5 18 -17z"/>
<path d="M4747 4127 c-2 -7 -2 -30 2 -52 5 -33 11 -41 31 -43 20 -3 23 -1 13
9 -17 17 -17 56 -1 61 9 3 8 9 -4 21 -20 20 -34 22 -41 4z"/>
<path d="M7657 4127 c-2 -7 -2 -30 2 -52 5 -33 11 -41 31 -44 24 -3 24 -2 7
16 -21 25 -22 39 0 51 15 9 15 11 1 26 -20 19 -34 20 -41 3z"/>
<path d="M4430 4075 c0 -25 5 -45 10 -45 6 0 10 16 10 36 0 45 24 42 28 -4 3
-34 22 -45 22 -13 0 26 10 51 21 51 5 0 9 -16 9 -35 0 -24 5 -35 15 -35 16 0
19 28 9 66 -5 19 -13 22 -65 23 l-59 1 0 -45z"/>
<path d="M4590 4107 c0 -10 7 -13 20 -10 11 3 20 1 20 -5 0 -5 -11 -13 -25
-16 -16 -4 -25 -13 -25 -26 0 -16 7 -20 36 -20 l35 0 -3 43 c-3 38 -6 42 -30
45 -19 2 -28 -1 -28 -11z m37 -53 c-3 -3 -12 -4 -19 -1 -8 3 -5 6 6 6 11 1 17
-2 13 -5z"/>
<path d="M4680 4075 c0 -25 5 -45 10 -45 6 0 10 11 10 24 0 13 7 29 15 36 22
18 18 30 -10 30 -23 0 -25 -4 -25 -45z"/>
<path d="M4996 4105 c-30 -30 -10 -75 33 -75 39 0 57 24 45 58 -11 32 -53 41
-78 17z m54 -20 c15 -18 5 -35 -21 -35 -14 0 -19 7 -19 25 0 28 21 33 40 10z"/>
<path d="M5100 4075 c0 -51 17 -62 22 -13 4 46 28 49 28 4 0 -20 5 -36 10 -36
6 0 10 10 10 23 0 29 15 51 29 43 6 -4 11 -20 11 -37 0 -16 5 -29 11 -29 6 0
9 17 7 43 l-3 42 -62 3 -63 2 0 -45z"/>
<path d="M5261 4106 c-7 -8 -11 -27 -9 -43 2 -22 9 -29 32 -31 16 -2 34 2 40
9 8 9 6 10 -11 6 -13 -3 -26 -1 -29 4 -3 5 6 9 20 9 31 0 36 8 25 38 -10 26
-50 30 -68 8z m49 -16 c0 -5 -7 -10 -15 -10 -8 0 -15 5 -15 10 0 6 7 10 15 10
8 0 15 -4 15 -10z"/>
<path d="M5530 4055 c0 -62 12 -86 23 -46 3 12 15 21 33 23 23 2 30 9 32 31 5
38 -14 57 -54 57 l-34 0 0 -65z m68 17 c3 -16 -2 -22 -17 -22 -26 0 -36 17
-20 36 16 19 33 13 37 -14z"/>
<path d="M5650 4056 c0 -37 4 -66 10 -66 6 0 10 9 10 20 0 16 7 20 30 20 24 0
31 5 36 27 10 37 -7 57 -50 61 l-36 3 0 -65z m65 19 c0 -13 -8 -21 -22 -23
-17 -3 -23 2 -23 16 0 10 3 22 7 26 13 13 38 1 38 -19z"/>
<path d="M7190 4075 c0 -25 5 -45 10 -45 6 0 10 8 10 18 0 10 7 27 15 38 20
27 19 34 -10 34 -23 0 -25 -4 -25 -45z"/>
<path d="M7260 4075 c0 -25 5 -45 10 -45 6 0 10 20 10 45 0 25 -4 45 -10 45
-5 0 -10 -20 -10 -45z"/>
<path d="M7410 4075 c0 -25 5 -45 10 -45 6 0 10 20 10 45 0 25 -4 45 -10 45
-5 0 -10 -20 -10 -45z"/>
<path d="M7467 4114 c-15 -15 -6 -24 18 -18 36 9 31 -9 -6 -23 -41 -16 -33
-37 15 -41 l37 -3 -3 43 c-3 38 -6 43 -28 46 -14 2 -29 0 -33 -4z m40 -60 c-3
-3 -12 -4 -19 -1 -8 3 -5 6 6 6 11 1 17 -2 13 -5z"/>
<path d="M7560 4074 c0 -51 17 -60 22 -11 2 17 8 32 13 32 6 0 11 -15 13 -32
5 -49 24 -40 20 10 -3 40 -5 42 -35 44 -33 1 -33 1 -33 -43z"/>
<path d="M7840 4105 c0 -12 6 -15 20 -10 11 3 20 2 20 -3 0 -6 -11 -13 -25
-16 -16 -4 -25 -13 -25 -26 0 -16 7 -20 36 -20 l35 0 -3 43 c-3 38 -6 42 -30
45 -21 2 -28 -1 -28 -13z m35 -54 c-3 -6 -11 -8 -17 -5 -6 4 -5 9 3 15 16 10
23 4 14 -10z"/>
<path d="M6151 3633 c-1 -18 4 -23 22 -22 15 1 17 3 5 6 -9 2 -19 12 -21 21
-3 12 -5 10 -6 -5z"/>
<path d="M6247 3573 c-15 -14 -5 -23 26 -22 21 1 25 3 12 6 -11 3 -23 9 -26
14 -3 5 -8 6 -12 2z"/>
<path d="M6156 3559 c6 -11 41 -12 47 -1 3 4 -8 7 -24 8 -15 1 -26 -3 -23 -7z"/>
<path d="M4880 3295 c-26 -12 -40 -13 -58 -6 -26 12 -62 14 -86 5 -12 -5 -16
-18 -15 -53 1 -27 4 -35 6 -20 4 27 25 39 70 39 31 0 34 -12 13 -40 -15 -20
-21 -23 -31 -12 -18 17 -36 15 -36 -3 0 -10 10 -15 27 -15 23 0 28 -6 39 -48
6 -27 9 -57 5 -67 -6 -15 -4 -17 10 -12 10 4 39 0 65 -9 72 -23 122 -7 156 50
14 23 25 55 25 70 0 37 -28 94 -54 111 -34 23 -97 27 -136 10z m104 -61 c19
-7 21 -55 4 -72 -9 -9 -9 -12 0 -12 7 0 12 -4 12 -10 0 -5 -13 -10 -30 -10
-34 0 -37 7 -15 36 19 25 19 45 0 38 -18 -7 -20 7 -3 24 14 14 12 14 32 6z
m-60 -39 c16 -12 17 -17 6 -30 -16 -19 -34 -19 -50 0 -9 11 -9 17 2 29 16 19
18 19 42 1z"/>
<path d="M4410 3291 c-20 -5 -25 -14 -27 -41 -2 -30 -1 -31 6 -10 7 25 12 26
64 14 17 -4 33 -1 43 7 14 12 14 14 -2 26 -19 14 -44 15 -84 4z"/>
<path d="M7327 3282 c-9 -10 -19 -34 -22 -53 -5 -33 -5 -33 7 -9 25 49 27 51
48 37 27 -16 25 -26 -6 -37 -29 -11 -23 -34 7 -25 22 7 23 2 6 -56 -7 -24 -11
-54 -9 -67 3 -20 7 -22 35 -16 18 3 33 7 35 9 2 1 -7 19 -19 39 -26 44 -23
124 6 156 17 19 17 20 -9 30 -39 15 -61 12 -79 -8z"/>
<path d="M4538 3279 c-10 -5 -18 -17 -18 -25 0 -9 -7 -22 -15 -30 -8 -9 -15
-22 -15 -30 0 -12 3 -12 23 1 13 8 27 12 30 8 14 -13 6 -30 -18 -43 -29 -15
-31 -31 -9 -65 25 -38 102 -57 143 -35 18 9 17 12 -6 57 -14 29 -32 50 -45 53
-24 6 -35 34 -37 88 -1 34 -6 37 -33 21z"/>
<path d="M4645 3280 c3 -5 -2 -10 -12 -11 -16 0 -16 -1 2 -8 11 -5 23 -7 28
-4 13 8 7 33 -9 33 -8 0 -12 -4 -9 -10z"/>
<path d="M7221 3268 c-19 -13 -41 -34 -50 -48 -15 -23 -15 -24 1 -12 9 8 26
11 37 7 15 -5 24 1 36 25 23 45 15 55 -24 28z"/>
<path d="M7488 3269 c-10 -5 -18 -17 -18 -25 0 -8 -9 -22 -20 -31 -24 -20 -24
-22 -5 -47 14 -19 15 -19 39 7 18 19 21 27 11 27 -8 0 -15 4 -15 9 0 19 32 41
58 41 26 1 26 1 8 15 -23 17 -34 18 -58 4z"/>
<path d="M7095 3227 c-18 -42 -18 -47 -6 -47 11 0 35 69 27 77 -3 3 -13 -10
-21 -30z"/>
<path d="M4400 3200 c0 -5 9 -10 20 -10 11 0 20 5 20 10 0 6 -9 10 -20 10 -11
0 -20 -4 -20 -10z"/>
<path d="M4461 3194 c0 -11 3 -14 6 -6 3 7 2 16 -1 19 -3 4 -6 -2 -5 -13z"/>
<path d="M7188 3163 c-3 -4 -5 -22 -6 -39 -2 -28 0 -31 22 -27 27 5 44 -13 28
-29 -8 -8 -16 -7 -28 3 -15 12 -17 12 -12 -1 5 -14 62 -19 74 -7 2 2 -7 24
-21 48 -13 24 -25 40 -25 34 0 -5 -7 -2 -14 8 -8 10 -16 15 -18 10z"/>
<path d="M7330 3155 c0 -8 5 -15 10 -15 6 0 10 7 10 15 0 8 -4 15 -10 15 -5 0
-10 -7 -10 -15z"/>
<path d="M7495 3159 c-3 -4 -2 -10 3 -13 11 -7 52 4 52 14 0 10 -49 10 -55 -1z"/>
<path d="M4411 3141 c-7 -5 -27 -7 -42 -4 -37 5 -39 -18 -6 -51 36 -36 147
-47 147 -15 0 6 -12 26 -26 45 -26 34 -47 41 -73 25z"/>
<path d="M7420 3139 c0 -6 8 -24 17 -40 21 -36 80 -55 121 -40 15 5 22 10 15
10 -7 1 -10 8 -6 17 4 10 -1 17 -16 21 -11 3 -18 9 -15 14 3 5 -10 9 -30 9
-19 0 -37 -6 -39 -12 -4 -8 -6 -7 -6 3 -1 9 -8 20 -17 23 -21 8 -24 8 -24 -5z"/>
<path d="M7630 3140 c0 -5 5 -10 11 -10 5 0 7 5 4 10 -3 6 -8 10 -11 10 -2 0
-4 -4 -4 -10z"/>
<path d="M7270 3120 c-13 -8 -12 -13 7 -32 25 -25 29 -24 38 15 6 22 4 27 -11
27 -11 0 -26 -5 -34 -10z"/>
<path d="M4731 3084 c0 -11 3 -14 6 -6 3 7 2 16 -1 19 -3 4 -6 -2 -5 -13z"/>
<path d="M4487 2343 c-4 -3 -7 -17 -7 -30 0 -17 -5 -24 -17 -22 -51 8 -86 -38
-63 -81 15 -28 35 -37 75 -32 l35 4 0 84 c0 77 -5 95 -23 77z m-12 -108 c0
-23 -4 -30 -20 -30 -21 0 -31 25 -21 51 11 28 41 12 41 -21z"/>
<path d="M4786 2342 c-8 -13 5 -53 15 -46 12 7 12 41 0 49 -5 3 -12 2 -15 -3z"/>
<path d="M5337 2344 c-4 -4 -7 -43 -7 -86 0 -71 2 -78 20 -78 11 0 20 7 20 15
0 8 5 15 10 15 6 0 13 -7 16 -15 4 -8 15 -15 26 -15 20 0 20 0 0 32 -18 29
-19 33 -5 55 14 21 14 23 -5 23 -11 0 -23 -8 -28 -17 -6 -13 -9 -6 -13 26 -6
42 -19 60 -34 45z"/>
<path d="M4130 2325 c0 -9 9 -15 25 -15 24 0 25 -2 25 -65 0 -50 3 -65 15 -65
10 0 15 16 17 63 3 56 5 62 26 65 12 2 22 10 22 18 0 11 -15 14 -65 14 -51 0
-65 -3 -65 -15z"/>
<path d="M4980 2325 c0 -9 9 -15 25 -15 24 0 25 -2 25 -65 0 -50 3 -65 15 -65
10 0 15 16 17 63 3 56 5 62 26 65 12 2 22 10 22 18 0 11 -15 14 -65 14 -51 0
-65 -3 -65 -15z"/>
<path d="M4287 2288 c-50 -17 -48 -79 3 -105 30 -15 62 -3 78 31 12 23 11 31
-2 50 -18 29 -42 36 -79 24z m51 -51 c4 -34 -25 -49 -44 -22 -10 13 -10 23 -3
37 15 27 43 18 47 -15z"/>
<path d="M4558 2279 l-23 -20 33 5 c41 7 42 -9 1 -23 -24 -8 -30 -15 -27 -33
3 -20 10 -23 51 -26 l47 -3 0 44 c0 63 -42 91 -82 56z m42 -64 c0 -8 -7 -15
-15 -15 -26 0 -18 20 13 29 1 1 2 -6 2 -14z"/>
<path d="M4853 2289 c-34 -13 -30 -48 7 -62 39 -15 39 -30 -1 -22 -23 5 -30 4
-27 -5 6 -19 40 -29 66 -19 30 11 26 49 -6 65 -35 17 -40 27 -9 20 15 -4 27
-2 27 3 0 17 -34 29 -57 20z"/>
<path d="M5133 2289 c-31 -12 -30 -33 1 -25 14 3 27 2 30 -3 4 -5 -7 -12 -23
-16 -30 -6 -48 -35 -36 -55 3 -5 26 -10 51 -10 l45 0 -3 46 c-3 54 -28 78 -65
63z m32 -79 c-3 -5 -13 -10 -21 -10 -8 0 -12 5 -9 10 3 6 13 10 21 10 8 0 12
-4 9 -10z"/>
<path d="M4660 2281 c0 -5 7 -28 15 -52 9 -25 13 -56 9 -72 -5 -24 -3 -28 11
-25 11 2 25 28 41 73 28 83 28 85 10 85 -7 0 -18 -15 -23 -32 l-11 -33 -13 33
c-12 29 -39 45 -39 23z"/>
<path d="M5226 2275 c-9 -23 4 -45 30 -51 35 -9 30 -27 -6 -19 -25 6 -29 4
-24 -10 5 -12 17 -15 43 -13 31 3 36 7 36 28 0 15 -8 29 -23 36 -37 18 -39 27
-5 19 28 -5 32 -4 27 9 -8 21 -70 22 -78 1z"/>
<path d="M6460 2170 c-372 -66 -524 -512 -271 -793 19 -21 47 -47 63 -58 l29
-21 52 36 c65 45 116 55 153 31 22 -14 25 -22 22 -58 -3 -23 -8 -50 -12 -59
-11 -25 28 -32 106 -20 250 40 415 232 411 482 -3 228 -152 407 -378 455 -76
16 -107 17 -175 5z m-25 -160 c-3 -5 -1 -10 5 -10 22 0 21 -32 -2 -68 -14 -20
-33 -50 -43 -67 -10 -16 -20 -24 -23 -17 -6 19 -28 -9 -55 -70 -24 -53 -24
-53 -28 -22 -8 51 39 160 92 216 41 43 70 64 54 38z m94 -128 c1 -44 -16 -32
-24 18 -8 46 5 79 16 40 4 -14 7 -40 8 -58z m224 -152 c-2 -2 -8 2 -13 10 -14
21 -13 -4 1 -34 10 -20 7 -34 -19 -89 -26 -54 -56 -87 -68 -75 -1 2 6 35 17
73 14 49 18 86 14 122 -6 51 -5 52 22 55 23 2 30 -2 39 -27 6 -16 9 -32 7 -35z
m-352 13 c5 -14 18 -27 29 -30 19 -5 19 -6 4 -18 -10 -7 -15 -19 -11 -28 3 -9
2 -19 -3 -22 -6 -4 -10 -14 -9 -23 0 -15 1 -15 8 1 8 22 21 24 32 5 5 -8 25
-12 53 -11 37 1 48 -3 72 -28 24 -25 26 -31 14 -39 -27 -17 -86 -11 -132 14
-40 21 -47 22 -60 9 -14 -13 -17 -10 -32 26 -9 23 -16 52 -16 66 0 30 -18 42
-27 18 -7 -19 -22 -33 -36 -33 -5 0 -7 15 -5 33 2 26 9 34 36 42 23 7 32 15
32 31 0 30 38 20 51 -13z m389 -43 c13 -24 4 -60 -13 -60 -7 0 -13 16 -13 40
-2 44 9 52 26 20z m-235 -14 c12 -9 16 -19 11 -31 -5 -13 -10 -15 -18 -7 -6 6
-16 8 -23 6 -9 -4 -12 3 -11 20 1 29 13 33 41 12z m235 -94 c0 -49 19 -98 50
-127 16 -16 30 -33 30 -39 0 -14 -59 44 -75 74 -18 35 -31 135 -16 126 6 -4
11 -19 11 -34z m-540 -84 c0 -16 -51 -68 -67 -68 -21 0 -15 22 14 52 28 29 53
37 53 16z m348 -51 c2 -19 -1 -27 -12 -27 -11 0 -16 10 -16 31 0 38 24 35 28
-4z m-88 -39 c0 -13 -8 -18 -30 -18 -16 0 -30 5 -30 10 0 6 7 10 15 10 10 0
15 10 15 28 1 26 1 26 15 8 8 -11 15 -28 15 -38z"/>
<path d="M6512 1574 c20 -19 52 -21 55 -3 3 11 -5 15 -32 15 -28 0 -33 -3 -23
-12z"/>
<path d="M5143 1620 c0 -36 2 -50 4 -32 2 17 2 47 0 65 -2 17 -4 3 -4 -33z"/>
<path d="M5603 1620 c0 -36 2 -50 4 -32 2 17 8 32 14 32 5 0 12 0 17 0 4 1 10
-14 13 -32 6 -32 6 -31 8 10 1 38 -1 42 -23 42 -18 0 -26 7 -29 23 -2 12 -4
-7 -4 -43z"/>
<path d="M4851 1613 c1 -32 4 -47 6 -34 3 13 13 26 24 28 25 7 24 23 -1 23
-27 0 -25 18 3 30 21 8 21 9 -5 9 -28 1 -28 0 -27 -56z"/>
<path d="M5812 1650 c0 -14 2 -19 5 -12 2 6 2 18 0 25 -3 6 -5 1 -5 -13z"/>
<path d="M5538 1648 c-2 -7 -2 -29 2 -48 3 -24 11 -36 25 -38 16 -3 18 -1 8 9
-16 16 -17 59 -2 59 6 0 4 7 -5 15 -18 18 -23 19 -28 3z"/>
<path d="M4933 1600 c0 -25 2 -35 4 -22 2 12 2 32 0 45 -2 12 -4 2 -4 -23z"/>
<path d="M4971 1598 c2 -43 2 -43 8 -8 4 22 12 35 21 35 9 0 18 -13 22 -35 l6
-35 -1 40 c-2 36 -5 40 -29 43 -27 3 -28 2 -27 -40z"/>
<path d="M5060 1631 c0 -6 7 -8 15 -5 22 9 18 -5 -7 -25 -25 -21 -17 -41 18
-41 23 0 25 3 22 38 -2 30 -7 38 -25 40 -13 2 -23 -1 -23 -7z m26 -58 c-10
-10 -19 5 -10 18 6 11 8 11 12 0 2 -7 1 -15 -2 -18z"/>
<path d="M5181 1600 c0 -40 2 -42 11 -22 8 16 8 28 0 45 -9 19 -11 17 -11 -23z"/>
<path d="M5220 1621 c0 -10 7 -21 15 -25 8 -3 15 -10 15 -17 0 -6 -7 -9 -15
-5 -8 3 -15 1 -15 -4 0 -17 40 -11 47 6 4 11 -3 24 -18 36 l-24 19 24 -6 c16
-5 21 -4 17 4 -12 19 -46 13 -46 -8z"/>
<path d="M5290 1600 c0 -22 5 -40 10 -40 6 0 10 18 10 40 0 22 -4 40 -10 40
-5 0 -10 -18 -10 -40z"/>
<path d="M5330 1601 c0 -48 17 -55 22 -9 4 46 28 49 28 4 0 -20 5 -36 11 -36
6 0 9 16 7 38 -3 34 -6 37 -35 40 -32 3 -33 2 -33 -37z"/>
<path d="M5426 1631 c-3 -5 -5 -28 -4 -51 2 -48 24 -67 53 -46 22 16 12 36
-18 36 l-21 0 21 15 c11 8 23 24 26 35 4 17 0 20 -23 20 -16 0 -31 -4 -34 -9z
m34 -16 c0 -8 -4 -15 -10 -15 -5 0 -10 7 -10 15 0 8 5 15 10 15 6 0 10 -7 10
-15z m10 -65 c0 -5 -7 -10 -15 -10 -8 0 -15 5 -15 10 0 6 7 10 15 10 8 0 15
-4 15 -10z"/>
<path d="M5693 1634 c-16 -7 -17 -46 -1 -62 15 -15 45 -16 53 -2 3 5 -2 9 -12
7 -10 -1 -18 3 -18 8 0 6 8 10 18 9 13 0 17 5 15 20 -3 21 -30 30 -55 20z m42
-14 c3 -5 -3 -10 -15 -10 -12 0 -18 5 -15 10 3 6 10 10 15 10 5 0 12 -4 15
-10z"/>
<path d="M4854 1448 c-11 -28 -6 -98 7 -98 5 0 9 16 9 35 0 21 5 35 13 35 8 0
8 3 -2 9 -8 5 -11 16 -8 25 10 25 -9 19 -19 -6z"/>
<path d="M5150 1450 c0 -15 -7 -20 -25 -20 -31 0 -50 -32 -35 -60 8 -14 20
-20 40 -18 30 2 30 3 30 60 0 32 -2 58 -5 58 -3 0 -5 -9 -5 -20z m-3 -46 c7
-19 -20 -49 -36 -40 -12 8 -15 39 -4 49 12 12 33 7 40 -9z"/>
<path d="M5453 1410 c0 -36 2 -50 4 -32 2 17 2 47 0 65 -2 17 -4 3 -4 -33z"/>
<path d="M4907 1423 c-13 -13 -7 -61 9 -67 29 -11 44 -6 56 19 8 19 8 28 -2
40 -13 15 -51 20 -63 8z m51 -27 c2 -10 -1 -23 -7 -29 -16 -16 -44 14 -35 37
8 22 38 17 42 -8z"/>
<path d="M5000 1389 c0 -24 4 -38 10 -34 6 3 10 16 10 29 0 12 5 27 12 34 9 9
7 12 -10 12 -19 0 -22 -5 -22 -41z"/>
<path d="M5192 1418 c-25 -25 -6 -68 29 -68 10 0 21 4 24 10 3 5 -2 9 -12 7
-10 -1 -19 3 -21 8 -1 6 9 11 23 13 19 3 25 8 21 19 -3 8 -6 17 -6 19 0 9 -47
3 -58 -8z m48 -8 c0 -5 -9 -10 -21 -10 -11 0 -17 5 -14 10 3 6 13 10 21 10 8
0 14 -4 14 -10z"/>
<path d="M5284 1393 c15 -45 31 -52 40 -19 3 13 9 31 12 40 3 9 2 16 -4 16 -5
0 -13 -12 -17 -27 l-7 -28 -10 28 c-5 15 -14 27 -18 27 -5 0 -3 -17 4 -37z"/>
<path d="M5360 1410 c-8 -14 -8 -26 0 -40 11 -21 44 -27 55 -10 3 5 -2 9 -12
7 -10 -1 -19 3 -21 8 -1 6 9 11 23 13 28 4 34 26 9 36 -27 11 -43 7 -54 -14z
m45 0 c3 -5 -3 -10 -15 -10 -12 0 -18 5 -15 10 3 6 10 10 15 10 5 0 12 -4 15
-10z"/>
<path d="M5497 1423 c-13 -13 -7 -61 9 -67 29 -11 44 -6 56 19 8 19 8 28 -2
40 -13 15 -51 20 -63 8z m51 -29 c4 -25 -22 -38 -37 -20 -15 18 -3 48 18 44 9
-2 17 -13 19 -24z"/>
<path d="M5591 1373 c1 -32 3 -50 6 -40 3 10 14 17 29 17 16 0 28 8 36 25 14
32 -4 55 -43 55 -29 0 -29 -1 -28 -57z m57 21 c2 -12 -4 -24 -12 -27 -19 -7
-40 18 -32 39 8 22 40 13 44 -12z"/>
<path d="M5680 1396 c0 -19 5 -38 10 -41 6 -3 10 3 10 14 0 26 10 51 21 51 5
0 9 -16 9 -35 0 -44 18 -46 22 -3 4 46 28 49 28 4 0 -20 5 -36 11 -36 6 0 9
16 7 38 l-3 37 -57 3 -58 2 0 -34z"/>
<path d="M5600 690 c0 -5 7 -7 15 -4 8 4 15 8 15 10 0 2 -7 4 -15 4 -8 0 -15
-4 -15 -10z"/>
<path d="M5680 691 c0 -6 5 -13 10 -16 6 -3 10 1 10 9 0 9 -4 16 -10 16 -5 0
-10 -4 -10 -9z"/>
<path d="M6080 679 c0 -11 5 -17 10 -14 6 3 10 13 10 21 0 8 -4 14 -10 14 -5
0 -10 -9 -10 -21z"/>
<path d="M6161 686 c-8 -10 -9 -16 -1 -21 5 -3 10 -1 10 5 0 8 9 10 27 5 23
-5 25 -4 14 9 -17 20 -35 20 -50 2z"/>
</g>
</svg>
